# xmcd CD database file generated by Grip 3.2.0
# 
# Track frame offsets:
#       150
#       22693
#       46937
#       73759
#       103743
#       130119
#       153373
#       171723
#       190853
# 
# Disc length: 2921 seconds
# 
# Revision: 1
# Processed by: cddbd v1.5.1PL0 Copyright (c) Steve Scherf et al.
# Submitted via: Grip 3.2.0
# 
DISCID=740b6709
DTITLE=Jim Crew - Shimmy Shack
DYEAR=2001
DGENRE=Jazz
TTITLE0=Blue Streak
TTITLE1=Neckbone
TTITLE2=Shimmy Shack
TTITLE3=Moon Walk
TTITLE4=Havana Deluxe
TTITLE5=Lurk
TTITLE6=Got the Funk
TTITLE7=Beam Me Up
TTITLE8=Gumbo
EXTD=YEAR: 2001
EXTT0=
EXTT1=
EXTT2=
EXTT3=
EXTT4=
EXTT5=
EXTT6=
EXTT7=
EXTT8=
PLAYORDER=
